<?xml version="1.0" standalone="no"?>
<!DOCTYPE svg PUBLIC "-//W3C//DTD SVG 20010904//EN"
 "http://www.w3.org/TR/2001/REC-SVG-20010904/DTD/svg10.dtd">
<svg version="1.0" xmlns="http://www.w3.org/2000/svg"
 width="4429.000000pt" height="1148.000000pt" viewBox="0 0 4429.000000 1148.000000"
 preserveAspectRatio="xMidYMid meet">

<g transform="translate(0.000000,1148.000000) scale(0.100000,-0.100000)"
fill="#000000" stroke="none">
<path d="M19903 8741 c-210 -53 -343 -178 -343 -320 1 -109 73 -203 204 -265
111 -53 201 -71 351 -70 149 1 230 17 341 70 85 40 173 128 192 191 49 165
-50 303 -273 379 -72 25 -97 28 -240 31 -130 2 -174 -1 -232 -16z"/>
<path d="M40033 8741 c-143 -36 -258 -110 -311 -199 -23 -40 -27 -58 -27 -122
0 -88 13 -116 80 -182 58 -58 119 -90 230 -124 78 -23 108 -27 230 -27 159 -1
235 14 350 68 73 35 131 84 173 148 32 49 42 154 19 210 -40 94 -129 165 -268
212 -76 26 -99 29 -244 31 -130 3 -174 0 -232 -15z"/>
<path d="M4080 7554 c-241 -22 -464 -60 -647 -109 -697 -190 -1208 -589 -1356
-1060 -38 -120 -51 -221 -44 -343 19 -370 244 -710 643 -975 330 -218 735
-358 1224 -424 187 -25 667 -25 855 0 647 87 1163 313 1510 661 189 190 299
392 346 633 17 91 7 299 -20 398 -25 93 -102 259 -159 342 -298 437 -913 755
-1647 854 -144 19 -585 34 -705 23z m1045 -589 c475 -74 866 -306 1008 -597
55 -114 71 -178 70 -288 -1 -160 -69 -314 -201 -452 -107 -112 -187 -169 -347
-248 -160 -79 -310 -127 -500 -161 -170 -30 -521 -33 -680 -6 -376 65 -655
194 -856 396 -149 150 -219 303 -219 481 0 177 70 330 219 481 224 226 567
367 1006 413 81 8 403 -4 500 -19z"/>
<path d="M9300 7554 c-445 -40 -813 -134 -1135 -289 -557 -270 -890 -681 -912
-1127 -7 -136 6 -231 47 -353 74 -218 215 -417 414 -583 295 -246 699 -428
1146 -516 254 -50 375 -61 685 -61 310 0 431 11 685 61 736 145 1315 528 1528
1011 59 134 76 221 76 388 1 186 -20 281 -98 441 -256 522 -915 899 -1766
1010 -119 15 -566 27 -670 18z m1065 -593 c481 -82 846 -304 999 -608 55 -110
72 -280 41 -412 -49 -206 -244 -417 -512 -554 -271 -139 -601 -206 -948 -194
-475 17 -883 175 -1130 438 -219 234 -259 519 -108 779 21 36 79 106 128 156
228 232 565 371 1010 418 97 10 404 -4 520 -23z"/>
<path d="M16920 7549 c-431 -21 -841 -91 -1179 -201 -121 -39 -289 -106 -363
-144 l-37 -19 170 -197 170 -198 67 34 c219 109 499 189 852 243 162 25 200
27 500 27 296 1 336 -1 452 -22 232 -42 391 -99 512 -186 167 -119 242 -260
253 -478 l6 -108 -734 0 c-404 0 -808 -5 -899 -10 -450 -28 -794 -102 -1039
-224 -120 -59 -173 -97 -256 -180 -120 -121 -178 -260 -179 -426 -1 -300 211
-540 613 -695 558 -215 1540 -219 2096 -8 158 60 283 130 387 215 l48 39 2
-188 3 -188 380 0 380 0 3 940 c2 1031 3 1020 -57 1185 -154 421 -602 683
-1306 765 -276 32 -540 39 -845 24z m1400 -1830 l0 -201 -35 -49 c-128 -173
-362 -314 -648 -389 -365 -96 -883 -98 -1197 -4 -194 58 -319 142 -380 256
-31 56 -35 71 -35 143 0 68 4 89 28 137 67 136 235 228 502 273 174 30 254 32
1018 34 l747 1 0 -201z"/>
<path d="M23005 7549 c-535 -32 -1031 -167 -1378 -375 -362 -218 -589 -516
-643 -844 -47 -285 22 -565 197 -801 75 -102 244 -258 366 -339 121 -81 319
-180 466 -235 657 -242 1560 -270 2227 -68 210 63 383 142 548 249 45 30 85
54 87 54 9 0 5 -238 -6 -341 -28 -282 -169 -497 -411 -633 -209 -117 -483
-182 -873 -207 -618 -40 -1358 78 -1828 292 -183 83 -164 79 -199 39 -17 -19
-102 -108 -189 -196 -88 -89 -159 -164 -159 -168 0 -4 60 -36 133 -71 372
-178 878 -292 1532 -347 224 -18 790 -15 1010 5 711 67 1177 241 1471 548 158
166 248 338 311 594 15 64 17 189 20 1448 l4 1377 -386 0 -385 0 0 -220 c0
-203 -5 -243 -26 -209 -12 20 -188 130 -284 179 -415 208 -996 306 -1605 269z
m555 -459 c475 -36 852 -174 1092 -398 245 -229 308 -572 158 -860 -134 -259
-452 -463 -870 -557 -411 -93 -927 -81 -1313 31 -377 110 -643 301 -762 549
-66 138 -85 251 -65 395 39 290 264 536 622 684 312 129 734 186 1138 156z"/>
<path d="M28407 7549 c-233 -14 -514 -58 -691 -110 -248 -71 -487 -187 -633
-306 l-43 -34 0 215 0 216 -395 0 -395 0 2 -1447 3 -1448 405 0 405 0 5 825
c6 821 6 825 29 905 104 364 430 600 946 685 455 75 927 34 1225 -106 219
-104 347 -250 419 -479 13 -43 16 -172 21 -940 l5 -890 405 0 405 0 0 915 c0
849 -1 921 -18 1000 -89 413 -386 707 -877 870 -333 110 -773 156 -1223 129z"/>
<path d="M33030 7554 c-979 -48 -1745 -414 -2033 -970 -187 -364 -162 -773 69
-1124 101 -153 311 -346 504 -462 490 -295 1200 -437 1932 -388 1094 75 1886
560 2033 1245 22 99 25 320 6 425 -28 156 -103 324 -210 470 -307 419 -924
707 -1681 784 -150 16 -488 26 -620 20z m395 -464 c466 -38 849 -194 1074
-435 160 -172 233 -353 232 -579 -1 -340 -196 -624 -557 -808 -183 -94 -393
-157 -634 -190 -125 -17 -516 -17 -640 1 -650 89 -1078 386 -1181 819 -18 72
-20 108 -16 212 5 140 21 210 73 319 68 146 190 280 344 383 321 213 816 318
1305 278z"/>
<path d="M37459 7550 c-872 -49 -1441 -298 -1581 -691 -30 -86 -32 -256 -4
-339 61 -181 178 -303 391 -405 250 -121 569 -187 1240 -260 713 -77 924 -120
1078 -218 74 -48 110 -102 115 -176 14 -191 -183 -323 -558 -376 -608 -85
-1429 8 -1986 226 -55 21 -103 39 -106 39 -12 0 -343 -408 -336 -414 14 -14
189 -82 291 -114 303 -97 673 -166 1097 -204 187 -16 763 -16 940 0 558 53
957 172 1213 365 199 150 291 351 259 564 -39 257 -257 446 -650 562 -223 66
-486 110 -1022 171 -700 80 -917 128 -1073 240 -102 73 -133 184 -81 288 57
115 217 201 466 251 392 79 973 62 1428 -41 109 -24 356 -100 430 -132 12 -5
62 48 188 198 95 113 172 207 172 210 0 8 -171 66 -280 96 -449 122 -1129 189
-1631 160z"/>
<path d="M19702 6083 l3 -1448 405 0 405 0 3 1448 2 1447 -410 0 -410 0 2
-1447z"/>
<path d="M39840 6080 l0 -1450 403 2 402 3 3 1448 2 1447 -405 0 -405 0 0
-1450z"/>
<path d="M40810 5060 c0 -19 7 -20 125 -20 l125 0 0 -200 0 -200 35 0 35 0 0
200 0 200 120 0 c113 0 120 1 120 20 0 20 -7 20 -280 20 -273 0 -280 0 -280
-20z"/>
<path d="M41480 4860 l0 -220 35 0 35 0 0 171 c0 97 4 169 9 167 5 -1 64 -65
131 -140 90 -101 129 -138 146 -138 16 0 57 39 151 145 l128 145 3 -175 2
-175 35 0 35 0 0 220 0 220 -32 0 c-30 0 -46 -15 -173 -159 -77 -88 -143 -160
-146 -160 -4 -1 -71 71 -150 159 -130 146 -145 160 -176 160 l-33 0 0 -220z"/>
<path d="M6300 4902 c0 -5 38 -87 84 -183 46 -96 127 -266 181 -379 54 -113
155 -325 225 -471 71 -147 131 -276 135 -288 10 -33 20 -25 48 37 14 31 85
181 157 332 73 151 172 358 220 460 48 102 122 256 163 343 l76 157 -644 0
c-355 0 -645 -4 -645 -8z"/>
</g>
</svg>
